<?xml version="1.0" standalone="no"?>
<!DOCTYPE svg PUBLIC "-//W3C//DTD SVG 20010904//EN"
 "http://www.w3.org/TR/2001/REC-SVG-20010904/DTD/svg10.dtd">
<svg version="1.0" xmlns="http://www.w3.org/2000/svg"
 width="400.000000pt" height="400.000000pt" viewBox="0 0 400.000000 400.000000"
 preserveAspectRatio="xMidYMid meet">
<metadata>
Created by potrace 1.14, written by Peter Selinger 2001-2017
</metadata>
<g transform="translate(0.000000,400.000000) scale(0.100000,-0.100000)"
fill="#000000" stroke="none">
<path d="M759 3990 c-379 -45 -695 -366 -739 -753 -13 -109 -13 -2365 0 -2474
45 -396 357 -708 753 -753 108 -13 2366 -13 2474 0 336 38 612 266 720 591
l28 84 0 1315 0 1315 -28 84 c-107 324 -386 553 -720 591 -98 12 -2391 11
-2488 0z m1845 -1205 c9 -13 16 -33 16 -45 0 -25 -34 -60 -57 -60 -10 0 -43
-7 -73 -16 -30 -8 -86 -24 -123 -34 -37 -10 -73 -22 -80 -28 -7 -5 -54 -19
-106 -31 -52 -12 -103 -27 -114 -33 -11 -5 -45 -14 -76 -19 -114 -19 -147 -26
-174 -37 -15 -6 -44 -13 -66 -14 l-38 -3 -13 -105 c-8 -58 -14 -117 -14 -132
-1 -16 -4 -28 -7 -28 -4 0 -6 -6 -6 -12 2 -19 -15 -111 -21 -123 -3 -5 -7 -19
-8 -31 -1 -12 -10 -62 -19 -111 -10 -48 -19 -97 -20 -109 -2 -11 -8 -45 -14
-75 -16 -83 -41 -269 -43 -320 -1 -53 -25 -93 -50 -84 -9 4 -14 14 -12 23 2 9
5 58 8 107 5 82 13 153 32 273 4 23 11 42 15 42 5 0 9 5 9 11 0 5 -4 8 -9 5
-5 -3 -3 16 5 42 8 26 21 90 30 142 24 151 25 154 34 175 5 11 13 56 20 100 6
44 18 104 27 133 10 31 12 57 7 62 -10 10 -167 -6 -199 -20 -17 -8 -179 -33
-282 -45 -18 -2 -36 -6 -41 -9 -4 -2 -30 -7 -56 -11 -27 -3 -52 -8 -56 -10 -7
-4 -56 -10 -157 -18 -10 -1 -24 -8 -31 -14 -7 -7 -23 -14 -35 -14 -24 -2 -42
-4 -102 -13 -94 -15 -287 -31 -291 -25 -2 4 -20 3 -39 -2 -37 -11 -55 -6 -55
14 0 26 106 51 305 73 22 3 47 8 55 11 8 3 42 10 75 14 33 4 78 10 100 13 22
4 55 9 73 11 18 2 38 7 44 11 7 4 21 9 32 10 34 4 102 20 112 27 6 3 41 7 80
8 38 1 72 6 75 11 7 10 77 22 218 38 45 5 89 14 96 20 6 5 34 12 61 15 72 6
187 27 199 35 6 4 32 11 60 15 27 4 62 13 77 21 16 8 28 12 28 9 0 -3 16 2 36
10 20 8 46 15 58 15 23 0 105 24 141 41 11 5 55 18 98 29 43 10 84 23 90 28 7
5 36 17 64 26 29 10 55 22 58 27 11 16 32 9 49 -16z m524 -103 c-1 -34 -7 -48
-31 -68 -19 -16 -36 -22 -48 -19 -11 4 -19 2 -19 -2 0 -5 -24 -18 -52 -28 -29
-10 -72 -32 -95 -49 -76 -56 -126 -91 -145 -102 -11 -6 -30 -21 -44 -33 -13
-11 -29 -21 -34 -21 -6 0 -10 -4 -10 -9 0 -5 -16 -19 -35 -31 -19 -12 -35 -25
-35 -30 0 -4 -28 -37 -62 -73 -103 -109 -153 -167 -161 -193 -5 -13 -13 -24
-18 -24 -5 0 -9 -6 -9 -14 0 -8 -6 -21 -13 -28 -7 -7 -20 -28 -28 -45 -7 -18
-17 -33 -21 -33 -5 0 -8 -10 -8 -23 0 -13 -4 -27 -9 -32 -27 -31 -53 -216 -32
-229 6 -4 11 -18 11 -32 0 -13 6 -24 13 -24 7 0 24 -11 39 -24 49 -46 94 -58
238 -63 78 -3 167 0 210 6 41 7 108 16 149 21 40 5 78 13 85 18 6 5 31 10 56
12 81 6 100 7 103 10 1 1 11 4 22 6 55 9 118 24 128 31 7 4 21 9 32 10 54 7
144 36 149 49 3 8 15 14 26 14 23 0 77 25 97 46 8 7 27 21 43 31 17 9 30 21
30 26 0 5 7 1 16 -7 13 -13 14 -22 4 -51 -6 -19 -16 -35 -21 -35 -5 0 -9 -7
-9 -16 0 -9 -9 -18 -20 -21 -11 -3 -20 -9 -20 -14 0 -5 -4 -9 -10 -9 -5 0 -25
-11 -45 -24 -20 -14 -53 -30 -73 -36 -20 -7 -56 -20 -79 -31 -23 -10 -61 -21
-85 -25 -24 -3 -53 -12 -65 -20 -12 -7 -41 -15 -65 -16 -24 -2 -46 -6 -49 -11
-3 -4 -32 -10 -65 -13 -32 -3 -63 -11 -69 -17 -5 -7 -28 -13 -50 -14 -22 -1
-58 -6 -80 -12 -22 -6 -76 -13 -120 -16 -44 -4 -102 -11 -128 -16 -27 -5 -53
-6 -59 -3 -6 4 -47 8 -92 10 -124 6 -173 22 -227 77 -47 48 -59 64 -59 82 0 8
-4 23 -9 33 -20 41 -28 84 -26 139 3 72 15 134 24 128 4 -2 8 9 8 25 0 16 7
38 16 48 10 10 17 29 17 41 0 12 9 31 20 43 10 12 17 24 15 28 -3 4 2 13 10
20 8 7 15 18 15 25 0 7 13 24 29 37 16 14 32 34 35 46 4 11 20 35 37 53 16 17
29 35 29 39 0 5 3 10 8 12 4 2 31 32 61 68 29 35 79 85 110 110 31 25 57 49
58 53 3 14 56 52 73 52 8 0 14 8 14 18 -1 9 2 17 8 17 9 0 69 39 78 52 3 3 30
23 60 44 30 20 57 41 58 46 2 4 12 8 23 8 11 0 22 7 25 15 4 8 12 15 19 15 16
0 79 32 83 42 2 4 14 0 27 -10 20 -14 24 -25 23 -60z"/>
</g>
</svg>
